Coordinates
version=1
nRows=8
nColumns=36
inDegrees=yes

Units are S.I. units (second, meters, Newtons, ...)
If the header above contains a line with 'inDegrees', this indicates whether rotational values are in degrees (yes) or radians (no).

endheader
time	pelvis_tilt	pelvis_list	pelvis_rotation	pelvis_tx	pelvis_ty	pelvis_tz	hip_flexion_r	hip_adduction_r	hip_rotation_r	knee_angle_r	knee_angle_r_beta	ankle_angle_r	subtalar_angle_r	mtp_angle_r	hip_flexion_l	hip_adduction_l	hip_rotation_l	knee_angle_l	knee_angle_l_beta	ankle_angle_l	subtalar_angle_l	mtp_angle_l	lumbar_extension	lumbar_bending	lumbar_rotation	arm_flex_r	arm_add_r	arm_rot_r	elbow_flex_r	pro_sup_r	arm_flex_l	arm_add_l	arm_rot_l	elbow_flex_l	pro_sup_l
      0.00000000	      1.07634374	      2.00503164	      0.63648039	      0.98478575	      0.80276143	      0.71643778	    -15.56711505	     -1.08630751	      1.82750249	     26.98929867	      0.47105212	     -0.80093373	    -11.95758272	     -6.92517374	     21.46559849	      4.54590153	      4.58265285	     14.15501969	      0.24705170	      0.03067049	     -6.74459745	     -6.92517374	     -6.08811937	     -2.32125459	      5.63830125	      3.98594667	    -13.01611772	     -9.77676557	     24.47309316	     89.38892268	      5.06219713	    -10.64506276	      1.88957720	     13.21839117	     87.12829725
      0.01666670	      0.01338882	      2.50759615	      0.28124797	      0.98779534	      0.80286713	      0.71785247	    -10.75163370	     -2.10189016	      1.16317347	     34.91489707	      0.60937991	     -1.37226572	     -9.99265109	     -7.00659071	     22.42580654	      5.18042448	      4.22477756	     16.99499379	      0.29661860	      1.47061807	     -6.98979045	     -7.00659071	     -4.34525903	     -3.56216560	      5.91470673	      3.70136012	    -12.26650396	    -10.45170497	     23.04971330	     89.94079488	      5.64647264	    -10.97464222	      3.54981890	     11.99066802	     89.74126165
      0.03333330	      0.12376016	      3.12530864	      0.00173224	      0.98587980	      0.80619023	      0.71570953	     -7.10932469	     -3.36411552	      0.72520526	     41.99281407	      0.73291287	     -4.70070679	     -9.64551746	     -7.01713417	     21.39170850	      5.93612578	      3.88686278	     17.66258877	      0.30827033	      3.21889380	     -7.03649603	     -7.01713417	     -4.35859146	     -4.29459399	      4.96438863	      3.74835013	    -11.59781192	    -10.45457122	     22.65792395	     89.94186075	      6.32665109	    -11.24800066	      3.69973751	     11.98082027	     89.88105816
      0.05000000	     -2.05832825	      3.37470033	     -0.40278740	      0.98304284	      0.80788050	      0.71147125	     -0.55327038	     -4.23584019	      1.03394783	     48.97562258	      0.85478587	     -8.57205822	    -10.32721616	     -7.04798537	     22.75597275	      6.06180294	      2.48746190	     18.08331011	      0.31561330	      5.28125877	     -6.20516209	     -7.04798537	     -1.15603591	     -4.38464088	      4.37717896	      3.50432375	    -10.97527607	    -10.60486671	     19.78944704	     90.37862606	      6.76650950	    -10.96861261	      4.39082566	     11.11749479	     90.76725058
      0.06666670	     -2.82448994	      3.37637256	     -0.79503429	      0.98147703	      0.81194164	      0.70837729	      4.13692284	     -4.46246544	      1.49058845	     54.41552963	      0.94973016	    -11.73109169	    -11.63537111	     -7.07360465	     22.34118024	      6.06009387	      1.46023928	     18.05098099	      0.31504905	      7.01913724	     -5.72551274	     -7.07360465	     -0.25728009	     -4.17720239	      3.65430542	      3.37810537	    -10.56328573	    -10.80024305	     17.93083271	     90.70404921	      7.69550732	    -10.52967933	      4.83270543	     10.93514270	     91.38419653
      0.08333330	     -3.61317696	      3.36278380	     -1.05831761	      0.98318637	      0.81436958	      0.70666780	      8.43171280	     -4.52550472	      1.72380061	     58.72771610	      1.02499201	    -13.27758931	    -12.76836819	     -7.09804755	     21.89103481	      6.08531173	      0.68022291	     18.10560952	      0.31600250	      8.26021357	     -5.60349799	     -7.09804755	      0.73122729	     -3.96705172	      2.91025650	      2.99134059	    -10.17776027	    -11.15865682	     16.21500441	     90.92256780	      8.45693319	    -10.19802899	      5.01544703	     10.93475839	     91.80476817
      0.10000000	     -4.43160381	      3.30763454	     -1.25948467	      0.98574504	      0.81481052	      0.70510298	     12.25663877	     -4.40395025	      1.86065832	     62.05768932	      1.08311100	    -13.71269772	    -13.81538313	     -7.11908714	     21.36616231	      6.12223505	      0.27560060	     18.04223784	      0.31489645	      9.07602015	     -5.79969568	     -7.11908714	      1.86145482	     -3.75038392	      2.14217922	      2.37470096	     -9.80206733	    -11.61091533	     14.73366308	     90.93869362	      8.97253884	    -10.09635510	      4.84395961	     11.18472716	     91.86970000
      0.11666670	     -5.26328909	      3.18384571	     -1.29581096	      0.98586274	      0.81499212	      0.70322906	     15.78955136	     -4.14514497	      1.85858177	     64.63032232	      1.12801192	    -12.96983604	    -14.62653533	     -7.13726177	     20.83034598	      6.14809170	      0.20553206	     17.89404278	      0.31230996	      9.67134259	     -6.16342974	     -7.13726177	      3.03832297	     -3.46665052	      1.17854340	      1.62257963	     -9.47528672	    -12.15029945	     13.39988196	     90.85846419	      9.39293423	    -10.17627571	      4.43239378	     11.63334461	     91.72375171
